<?xml version="1.0" encoding="UTF-8"?>
<svg id="MW_LOGO_WHITE_3_LAYERS" data-name="MW LOGO WHITE 3 LAYERS" xmlns="http://www.w3.org/2000/svg" viewBox="0 0 2770.7 2984.02">
  <defs>
    <style>
      .cls-1 {
        fill: #38384e;
      }
    </style>
  </defs>
  <g id="MW_LOGO_copy_5" data-name="MW LOGO copy 5">
    <polygon class="cls-1" points="2314.99 0 2314.99 2002.49 2588.42 2221.23 1986.88 2221.23 1986.88 635.36 1412.69 1028.23 1412.69 1446.52 1294.21 1446.52 1294.21 1109.3 1294.21 735.62 2314.99 0"/>
    <polygon class="cls-1" points="273.42 0 273.42 2002.49 0 2221.23 601.53 2221.23 601.53 635.36 1175.73 1028.23 1175.73 1446.52 1294.21 1446.52 1294.21 1109.3 1294.21 735.62 273.42 0"/>
    <path class="cls-1" d="m1412.69,1446.52l200.74,771.91,974.99-1361.03c-241.11,603.52-462.94,1096.81-601.53,1363.82-68.4,131.78-116.88,206.03-136.71,215.94-36.46,18.23-143.2,47.93-164.05,54.68l-118.48,492.16-273.42-1537.5h118.48Z"/>
    <path class="cls-1" d="m1175.73,1446.52l-200.74,771.91L0,857.4c241.11,603.52,462.94,1096.81,601.53,1363.82,68.4,131.78,116.88,206.03,136.71,215.94,36.46,18.23,143.2,47.93,164.05,54.68l118.48,492.16,273.42-1537.5h-118.48Z"/>
  </g>
  <g id="MW_LOGO_copy_5-2" data-name="MW LOGO copy 5">
    <polygon class="cls-1" points="2497.28 0 2497.28 2002.49 2770.7 2221.23 2169.17 2221.23 2169.17 635.36 1594.98 1028.23 1594.98 1446.52 1476.49 1446.52 1476.49 1109.3 1476.49 735.62 2497.28 0"/>
    <polygon class="cls-1" points="455.71 0 455.71 2002.49 182.28 2221.23 783.82 2221.23 783.82 635.36 1358.01 1028.23 1358.01 1446.52 1476.49 1446.52 1476.49 1109.3 1476.49 735.62 455.71 0"/>
    <path class="cls-1" d="m1594.98,1446.52l200.74,771.91,974.99-1361.03c-241.11,603.52-462.94,1096.81-601.53,1363.82-68.4,131.78-116.88,206.03-136.71,215.94-36.46,18.23-143.2,47.93-164.05,54.68l-118.48,492.16-273.42-1537.5h118.48Z"/>
    <path class="cls-1" d="m1358.01,1446.52l-200.74,771.91L182.28,857.4c241.11,603.52,462.94,1096.81,601.53,1363.82,68.4,131.78,116.88,206.03,136.71,215.94,36.46,18.23,143.2,47.93,164.05,54.68l118.48,492.16,273.42-1537.5h-118.48Z"/>
  </g>
  <g id="MW_LOGO_copy_5-3" data-name="MW LOGO copy 5">
    <polygon class="cls-1" points="2406.14 0 2406.14 2002.49 2679.56 2221.23 2078.03 2221.23 2078.03 635.36 1503.83 1028.23 1503.83 1446.52 1385.35 1446.52 1385.35 1109.3 1385.35 735.62 2406.14 0"/>
    <polygon class="cls-1" points="364.57 0 364.57 2002.49 91.14 2221.23 692.68 2221.23 692.68 635.36 1266.87 1028.23 1266.87 1446.52 1385.35 1446.52 1385.35 1109.3 1385.35 735.62 364.57 0"/>
    <path class="cls-1" d="m1503.83,1446.52l200.74,771.91,974.99-1361.03c-241.11,603.52-462.94,1096.81-601.53,1363.82-68.4,131.78-116.88,206.03-136.71,215.94-36.46,18.23-143.2,47.93-164.05,54.68l-118.48,492.16-273.42-1537.5h118.48Z"/>
    <path class="cls-1" d="m1266.87,1446.52l-200.74,771.91L91.14,857.4c241.11,603.52,462.94,1096.81,601.53,1363.82,68.4,131.78,116.88,206.03,136.71,215.94,36.46,18.23,143.2,47.93,164.05,54.68l118.48,492.16,273.42-1537.5h-118.48Z"/>
  </g>
</svg>