<?xml version="1.0" encoding="UTF-8"?>
<svg id="MW_LOGO_WHITE_3_LAYERS" data-name="MW LOGO WHITE 3 LAYERS" xmlns="http://www.w3.org/2000/svg" viewBox="0 0 2770.7 2984.02">
  <defs>
    <style>
      .cls-1 {
        fill: #858e9e;
      }
    </style>
  </defs>
  <g id="MW_LOGO_copy_5" data-name="MW LOGO copy 5">
    <path class="cls-1" d="m2497.28,1515.39c85.47-197.23,177.93-418.96,273.42-657.98l-210.6,293.98c39.07-94.53,78.99-192.7,119.46-293.98l-182.28,254.46v-29.25c29.98-73.12,60.4-148.26,91.14-225.2l-91.14,127.23V0l-91.14,65.68V0l-91.14,65.68V0l-929.64,669.94L455.71,0v65.68L364.57,0v65.68L273.42,0v984.63l-91.14-127.23c30.74,76.94,61.16,152.09,91.14,225.2v29.25l-182.28-254.46c40.46,101.28,80.38,199.46,119.46,293.98L0,857.4c95.49,239.02,187.95,460.75,273.42,657.98v487.1L0,2221.22h601.53c68.4,131.78,116.88,206.03,136.71,215.94,36.46,18.23,143.2,47.93,164.05,54.69l118.48,492.16,38.72-217.74,52.42,217.74,38.72-217.74,52.42,217.74,182.28-1025,182.28,1025,52.42-217.74,38.72,217.74,52.42-217.74,38.72,217.74,118.48-492.16c20.85-6.76,127.6-36.46,164.05-54.69,19.83-9.92,68.31-84.17,136.71-215.94h601.53l-273.42-218.74v-487.1Zm-902.3-487.16l391.91-268.15v937.03l-239.72,334.64-152.19-585.22v-418.29Zm-811.16,668.88v-937.03l391.91,268.15v418.29l-152.19,585.22-239.72-334.64Z"/>
  </g>
</svg>